<svg width="22" height="22" viewBox="0 0 22 22" fill="none" xmlns="http://www.w3.org/2000/svg">
    <path fill-rule="evenodd" clip-rule="evenodd" d="M15.2 1H6.8C3.5 1 1.5 3.2 1.5 6.5V15.5C1.5 18.8 3.5 21 6.8 21H15.2C18.5 21 20.5 18.8 20.5 15.5V6.5C20.5 3.2 18.5 1 15.2 1Z" stroke="#244034" stroke-width="1.5" stroke-linecap="round" stroke-linejoin="round"/>
    <path opacity="0.4" fill-rule="evenodd" clip-rule="evenodd" d="M11 10.5C12.6569 10.5 14 9.15685 14 7.5C14 5.84315 12.6569 4.5 11 4.5C9.34315 4.5 8 5.84315 8 7.5C8 9.15685 9.34315 10.5 11 10.5Z" stroke="#244034" stroke-width="1.5" stroke-linecap="round" stroke-linejoin="round"/>
    <path opacity="0.4" d="M5.5 17.5C5.5 14.7 7.96 12.5 11 12.5C14.04 12.5 16.5 14.7 16.5 17.5" stroke="#244034" stroke-width="1.5" stroke-linecap="round" stroke-linejoin="round"/>
</svg>
